<svg width="175" viewBox="0 0 642 160" fill="none" xmlns="http://www.w3.org/2000/svg">
<path d="M173.3 111.3C176.067 111.3 178.45 110.983 180.45 110.35C182.45 109.717 184.083 108.833 185.35 107.7C186.65 106.533 187.6 105.167 188.2 103.6C188.8 102 189.1 100.25 189.1 98.35C189.1 94.65 187.783 91.7333 185.15 89.6C182.517 87.4333 178.567 86.35 173.3 86.35H157.8V111.3H173.3ZM157.8 55V79.45H170.6C173.333 79.45 175.7 79.15 177.7 78.55C179.733 77.95 181.4 77.1167 182.7 76.05C184.033 74.9833 185.017 73.7 185.65 72.2C186.283 70.6667 186.6 69 186.6 67.2C186.6 62.9667 185.333 59.8833 182.8 57.95C180.267 55.9833 176.333 55 171 55H157.8ZM171 47.35C175.4 47.35 179.183 47.7833 182.35 48.65C185.55 49.5167 188.167 50.75 190.2 52.35C192.267 53.95 193.783 55.9167 194.75 58.25C195.717 60.55 196.2 63.15 196.2 66.05C196.2 67.8167 195.917 69.5167 195.35 71.15C194.817 72.75 194 74.25 192.9 75.65C191.8 77.05 190.4 78.3167 188.7 79.45C187.033 80.55 185.067 81.45 182.8 82.15C188.067 83.15 192.017 85.0333 194.65 87.8C197.317 90.5333 198.65 94.1333 198.65 98.6C198.65 101.633 198.083 104.4 196.95 106.9C195.85 109.4 194.217 111.55 192.05 113.35C189.917 115.15 187.283 116.55 184.15 117.55C181.017 118.517 177.45 119 173.45 119H148.15V47.35H171ZM237.367 96.2C233.267 96.3333 229.767 96.6667 226.867 97.2C224.001 97.7 221.651 98.3667 219.817 99.2C218.017 100.033 216.701 101.017 215.867 102.15C215.067 103.283 214.667 104.55 214.667 105.95C214.667 107.283 214.884 108.433 215.317 109.4C215.751 110.367 216.334 111.167 217.067 111.8C217.834 112.4 218.717 112.85 219.717 113.15C220.751 113.417 221.851 113.55 223.017 113.55C224.584 113.55 226.017 113.4 227.317 113.1C228.617 112.767 229.834 112.3 230.967 111.7C232.134 111.1 233.234 110.383 234.267 109.55C235.334 108.717 236.367 107.767 237.367 106.7V96.2ZM208.617 75.5C211.417 72.8 214.434 70.7833 217.667 69.45C220.901 68.1167 224.484 67.45 228.417 67.45C231.251 67.45 233.767 67.9167 235.967 68.85C238.167 69.7833 240.017 71.0833 241.517 72.75C243.017 74.4167 244.151 76.4333 244.917 78.8C245.684 81.1667 246.067 83.7667 246.067 86.6V119H242.117C241.251 119 240.584 118.867 240.117 118.6C239.651 118.3 239.284 117.733 239.017 116.9L238.017 112.1C236.684 113.333 235.384 114.433 234.117 115.4C232.851 116.333 231.517 117.133 230.117 117.8C228.717 118.433 227.217 118.917 225.617 119.25C224.051 119.617 222.301 119.8 220.367 119.8C218.401 119.8 216.551 119.533 214.817 119C213.084 118.433 211.567 117.6 210.267 116.5C209.001 115.4 207.984 114.017 207.217 112.35C206.484 110.65 206.117 108.65 206.117 106.35C206.117 104.35 206.667 102.433 207.767 100.6C208.867 98.7333 210.651 97.0833 213.117 95.65C215.584 94.2167 218.801 93.05 222.767 92.15C226.734 91.2167 231.601 90.6833 237.367 90.55V86.6C237.367 82.6667 236.517 79.7 234.817 77.7C233.117 75.6667 230.634 74.65 227.367 74.65C225.167 74.65 223.317 74.9333 221.817 75.5C220.351 76.0333 219.067 76.65 217.967 77.35C216.901 78.0167 215.967 78.6333 215.167 79.2C214.401 79.7333 213.634 80 212.867 80C212.267 80 211.751 79.85 211.317 79.55C210.884 79.2167 210.517 78.8167 210.217 78.35L208.617 75.5ZM294.874 77.35C294.608 77.7167 294.341 78 294.074 78.2C293.808 78.4 293.441 78.5 292.974 78.5C292.474 78.5 291.924 78.3 291.324 77.9C290.724 77.4667 289.974 77 289.074 76.5C288.208 76 287.124 75.55 285.824 75.15C284.558 74.7167 282.991 74.5 281.124 74.5C278.624 74.5 276.424 74.95 274.524 75.85C272.624 76.7167 271.024 77.9833 269.724 79.65C268.458 81.3167 267.491 83.3333 266.824 85.7C266.191 88.0667 265.874 90.7167 265.874 93.65C265.874 96.7167 266.224 99.45 266.924 101.85C267.624 104.217 268.608 106.217 269.874 107.85C271.174 109.45 272.724 110.683 274.524 111.55C276.358 112.383 278.408 112.8 280.674 112.8C282.841 112.8 284.624 112.55 286.024 112.05C287.424 111.517 288.574 110.933 289.474 110.3C290.408 109.667 291.174 109.1 291.774 108.6C292.408 108.067 293.024 107.8 293.624 107.8C294.358 107.8 294.924 108.083 295.324 108.65L297.824 111.9C296.724 113.267 295.474 114.433 294.074 115.4C292.674 116.367 291.158 117.183 289.524 117.85C287.924 118.483 286.241 118.95 284.474 119.25C282.708 119.55 280.908 119.7 279.074 119.7C275.908 119.7 272.958 119.117 270.224 117.95C267.524 116.783 265.174 115.1 263.174 112.9C261.174 110.667 259.608 107.933 258.474 104.7C257.341 101.467 256.774 97.7833 256.774 93.65C256.774 89.8833 257.291 86.4 258.324 83.2C259.391 80 260.924 77.25 262.924 74.95C264.958 72.6167 267.441 70.8 270.374 69.5C273.341 68.2 276.741 67.55 280.574 67.55C284.141 67.55 287.274 68.1333 289.974 69.3C292.708 70.4333 295.124 72.05 297.224 74.15L294.874 77.35ZM316.328 45.35V88.7H318.628C319.295 88.7 319.845 88.6167 320.278 88.45C320.745 88.25 321.228 87.8667 321.728 87.3L337.728 70.15C338.195 69.5833 338.678 69.15 339.178 68.85C339.711 68.5167 340.411 68.35 341.278 68.35H349.328L330.678 88.2C329.778 89.3333 328.811 90.2167 327.778 90.85C328.378 91.25 328.911 91.7167 329.378 92.25C329.878 92.75 330.345 93.3333 330.778 94L350.578 119H342.628C341.861 119 341.195 118.883 340.628 118.65C340.095 118.383 339.628 117.917 339.228 117.25L322.578 96.5C322.078 95.8 321.578 95.35 321.078 95.15C320.611 94.9167 319.878 94.8 318.878 94.8H316.328V119H307.378V45.35H316.328ZM380.109 82.05C382.909 82.05 385.376 81.7167 387.509 81.05C389.676 80.35 391.476 79.3833 392.909 78.15C394.376 76.8833 395.476 75.3833 396.209 73.65C396.943 71.9167 397.309 70 397.309 67.9C397.309 63.6333 395.909 60.4167 393.109 58.25C390.309 56.0833 386.109 55 380.509 55H369.909V82.05H380.109ZM413.209 119H404.609C402.843 119 401.543 118.317 400.709 116.95L382.109 91.35C381.543 90.55 380.926 89.9833 380.259 89.65C379.626 89.2833 378.626 89.1 377.259 89.1H369.909V119H360.259V47.35H380.509C385.043 47.35 388.959 47.8167 392.259 48.75C395.559 49.65 398.276 50.9667 400.409 52.7C402.576 54.4333 404.176 56.5333 405.209 59C406.243 61.4333 406.759 64.1667 406.759 67.2C406.759 69.7333 406.359 72.1 405.559 74.3C404.759 76.5 403.593 78.4833 402.059 80.25C400.559 81.9833 398.709 83.4667 396.509 84.7C394.343 85.9333 391.876 86.8667 389.109 87.5C390.343 88.2 391.409 89.2167 392.309 90.55L413.209 119ZM438.982 67.55C442.682 67.55 446.015 68.1667 448.982 69.4C451.949 70.6333 454.482 72.3833 456.582 74.65C458.682 76.9167 460.282 79.6667 461.382 82.9C462.515 86.1 463.082 89.6833 463.082 93.65C463.082 97.65 462.515 101.25 461.382 104.45C460.282 107.65 458.682 110.383 456.582 112.65C454.482 114.917 451.949 116.667 448.982 117.9C446.015 119.1 442.682 119.7 438.982 119.7C435.249 119.7 431.882 119.1 428.882 117.9C425.915 116.667 423.382 114.917 421.282 112.65C419.182 110.383 417.565 107.65 416.432 104.45C415.332 101.25 414.782 97.65 414.782 93.65C414.782 89.6833 415.332 86.1 416.432 82.9C417.565 79.6667 419.182 76.9167 421.282 74.65C423.382 72.3833 425.915 70.6333 428.882 69.4C431.882 68.1667 435.249 67.55 438.982 67.55ZM438.982 112.75C443.982 112.75 447.715 111.083 450.182 107.75C452.649 104.383 453.882 99.7 453.882 93.7C453.882 87.6667 452.649 82.9667 450.182 79.6C447.715 76.2333 443.982 74.55 438.982 74.55C436.449 74.55 434.232 74.9833 432.332 75.85C430.465 76.7167 428.899 77.9667 427.632 79.6C426.399 81.2333 425.465 83.25 424.832 85.65C424.232 88.0167 423.932 90.7 423.932 93.7C423.932 99.7 425.165 104.383 427.632 107.75C430.132 111.083 433.915 112.75 438.982 112.75ZM501.82 96.2C497.72 96.3333 494.22 96.6667 491.32 97.2C488.454 97.7 486.104 98.3667 484.27 99.2C482.47 100.033 481.154 101.017 480.32 102.15C479.52 103.283 479.12 104.55 479.12 105.95C479.12 107.283 479.337 108.433 479.77 109.4C480.204 110.367 480.787 111.167 481.52 111.8C482.287 112.4 483.17 112.85 484.17 113.15C485.204 113.417 486.304 113.55 487.47 113.55C489.037 113.55 490.47 113.4 491.77 113.1C493.07 112.767 494.287 112.3 495.42 111.7C496.587 111.1 497.687 110.383 498.72 109.55C499.787 108.717 500.82 107.767 501.82 106.7V96.2ZM473.07 75.5C475.87 72.8 478.887 70.7833 482.12 69.45C485.354 68.1167 488.937 67.45 492.87 67.45C495.704 67.45 498.22 67.9167 500.42 68.85C502.62 69.7833 504.47 71.0833 505.97 72.75C507.47 74.4167 508.604 76.4333 509.37 78.8C510.137 81.1667 510.52 83.7667 510.52 86.6V119H506.57C505.704 119 505.037 118.867 504.57 118.6C504.104 118.3 503.737 117.733 503.47 116.9L502.47 112.1C501.137 113.333 499.837 114.433 498.57 115.4C497.304 116.333 495.97 117.133 494.57 117.8C493.17 118.433 491.67 118.917 490.07 119.25C488.504 119.617 486.754 119.8 484.82 119.8C482.854 119.8 481.004 119.533 479.27 119C477.537 118.433 476.02 117.6 474.72 116.5C473.454 115.4 472.437 114.017 471.67 112.35C470.937 110.65 470.57 108.65 470.57 106.35C470.57 104.35 471.12 102.433 472.22 100.6C473.32 98.7333 475.104 97.0833 477.57 95.65C480.037 94.2167 483.254 93.05 487.22 92.15C491.187 91.2167 496.054 90.6833 501.82 90.55V86.6C501.82 82.6667 500.97 79.7 499.27 77.7C497.57 75.6667 495.087 74.65 491.82 74.65C489.62 74.65 487.77 74.9333 486.27 75.5C484.804 76.0333 483.52 76.65 482.42 77.35C481.354 78.0167 480.42 78.6333 479.62 79.2C478.854 79.7333 478.087 80 477.32 80C476.72 80 476.204 79.85 475.77 79.55C475.337 79.2167 474.97 78.8167 474.67 78.35L473.07 75.5ZM557.077 80.4C555.411 78.1667 553.611 76.6167 551.677 75.75C549.744 74.85 547.577 74.4 545.177 74.4C540.477 74.4 536.861 76.0833 534.327 79.45C531.794 82.8167 530.527 87.6167 530.527 93.85C530.527 97.15 530.811 99.9833 531.377 102.35C531.944 104.683 532.777 106.617 533.877 108.15C534.977 109.65 536.327 110.75 537.927 111.45C539.527 112.15 541.344 112.5 543.377 112.5C546.311 112.5 548.861 111.833 551.027 110.5C553.227 109.167 555.244 107.283 557.077 104.85V80.4ZM565.977 45.35V119H560.677C559.411 119 558.611 118.383 558.277 117.15L557.477 111C555.311 113.6 552.844 115.7 550.077 117.3C547.311 118.9 544.111 119.7 540.477 119.7C537.577 119.7 534.944 119.15 532.577 118.05C530.211 116.917 528.194 115.267 526.527 113.1C524.861 110.933 523.577 108.233 522.677 105C521.777 101.767 521.327 98.05 521.327 93.85C521.327 90.1167 521.827 86.65 522.827 83.45C523.827 80.2167 525.261 77.4167 527.127 75.05C528.994 72.6833 531.277 70.8333 533.977 69.5C536.711 68.1333 539.777 67.45 543.177 67.45C546.277 67.45 548.927 67.9833 551.127 69.05C553.361 70.0833 555.344 71.5333 557.077 73.4V45.35H565.977ZM609.534 76.7C609.134 77.4333 608.518 77.8 607.684 77.8C607.184 77.8 606.618 77.6167 605.984 77.25C605.351 76.8833 604.568 76.4833 603.634 76.05C602.734 75.5833 601.651 75.1667 600.384 74.8C599.118 74.4 597.618 74.2 595.884 74.2C594.384 74.2 593.034 74.4 591.834 74.8C590.634 75.1667 589.601 75.6833 588.734 76.35C587.901 77.0167 587.251 77.8 586.784 78.7C586.351 79.5667 586.134 80.5167 586.134 81.55C586.134 82.85 586.501 83.9333 587.234 84.8C588.001 85.6667 589.001 86.4167 590.234 87.05C591.468 87.6833 592.868 88.25 594.434 88.75C596.001 89.2167 597.601 89.7333 599.234 90.3C600.901 90.8333 602.518 91.4333 604.084 92.1C605.651 92.7667 607.051 93.6 608.284 94.6C609.518 95.6 610.501 96.8333 611.234 98.3C612.001 99.7333 612.384 101.467 612.384 103.5C612.384 105.833 611.968 108 611.134 110C610.301 111.967 609.068 113.683 607.434 115.15C605.801 116.583 603.801 117.717 601.434 118.55C599.068 119.383 596.334 119.8 593.234 119.8C589.701 119.8 586.501 119.233 583.634 118.1C580.768 116.933 578.334 115.45 576.334 113.65L578.434 110.25C578.701 109.817 579.018 109.483 579.384 109.25C579.751 109.017 580.218 108.9 580.784 108.9C581.384 108.9 582.018 109.133 582.684 109.6C583.351 110.067 584.151 110.583 585.084 111.15C586.051 111.717 587.218 112.233 588.584 112.7C589.951 113.167 591.651 113.4 593.684 113.4C595.418 113.4 596.934 113.183 598.234 112.75C599.534 112.283 600.618 111.667 601.484 110.9C602.351 110.133 602.984 109.25 603.384 108.25C603.818 107.25 604.034 106.183 604.034 105.05C604.034 103.65 603.651 102.5 602.884 101.6C602.151 100.667 601.168 99.8833 599.934 99.25C598.701 98.5833 597.284 98.0167 595.684 97.55C594.118 97.05 592.501 96.5333 590.834 96C589.201 95.4667 587.584 94.8667 585.984 94.2C584.418 93.5 583.018 92.6333 581.784 91.6C580.551 90.5667 579.551 89.3 578.784 87.8C578.051 86.2667 577.684 84.4167 577.684 82.25C577.684 80.3167 578.084 78.4667 578.884 76.7C579.684 74.9 580.851 73.3333 582.384 72C583.918 70.6333 585.801 69.55 588.034 68.75C590.268 67.95 592.818 67.55 595.684 67.55C599.018 67.55 602.001 68.0833 604.634 69.15C607.301 70.1833 609.601 71.6167 611.534 73.45L609.534 76.7Z" fill="#102A42"/>
<circle cx="78" cy="80" r="52" fill="#2CAEBA"/>
<path d="M53.9625 108.788C53.6375 109.663 53.125 110.313 52.425 110.738C51.75 111.163 51.05 111.375 50.325 111.375H47.5125L70.05 55.2375C70.35 54.4375 70.8 53.825 71.4 53.4C72.025 52.975 72.7375 52.7625 73.5375 52.7625H76.3875L53.9625 108.788ZM71.1012 108.788C70.7762 109.663 70.2637 110.313 69.5637 110.738C68.8887 111.163 68.1887 111.375 67.4637 111.375H64.6512L87.1887 55.2375C87.4887 54.4375 87.9387 53.825 88.5387 53.4C89.1637 52.975 89.8762 52.7625 90.6762 52.7625H93.5262L71.1012 108.788ZM88.2398 108.788C87.9148 109.663 87.4023 110.313 86.7023 110.738C86.0273 111.163 85.3273 111.375 84.6023 111.375H81.7898L104.327 55.2375C104.627 54.4375 105.077 53.825 105.677 53.4C106.302 52.975 107.015 52.7625 107.815 52.7625H110.665L88.2398 108.788Z" fill="white"/>
</svg>
